<svg width="368" height="177" viewBox="0 0 368 177" fill="none" xmlns="http://www.w3.org/2000/svg">
<path fill-rule="evenodd" clip-rule="evenodd" d="M305.486 86.1599C305.418 86.1879 305.293 86.2099 305.289 86.2459C305.096 88.0409 304.03 89.2759 302.559 90.1039C301.95 90.4459 301.242 90.7459 300.419 90.7439C287.381 90.7099 274.343 90.7239 261.305 90.7109C260.127 90.7099 258.988 90.3789 257.887 89.9899C256.301 89.4299 255.199 88.2889 254.364 86.8609C254.157 86.5069 253.708 84.9959 253.64 84.4779C253.591 84.1079 253.327 83.6859 253.436 83.3879C253.787 82.4219 253.601 81.4459 253.638 80.4769C253.675 79.5179 253.68 78.5549 253.633 77.5979C253.606 77.0739 253.441 76.5559 253.304 75.8569C252.959 75.5119 252.453 75.0599 252.011 74.5519C251.197 73.6199 250.354 72.7009 249.659 71.6809C249.348 71.2239 248.886 70.6949 249.165 69.8879C249.73 69.2249 250.388 68.4539 251.023 67.7079C251.546 67.6789 251.975 67.7799 252.423 67.8649C252.902 67.9559 253.38 68.1429 253.873 68.1519C254.338 68.1599 254.79 68.1739 255.212 68.3939C255.667 68.0659 256.107 68.4889 256.578 68.4269C257.01 68.3699 257.532 68.2009 257.911 68.7049C258.068 68.6029 258.193 68.5219 258.387 68.3969C258.797 68.4959 259.294 68.9569 259.732 68.4509C260.222 68.5169 260.669 68.6309 261.117 68.6319C266.396 68.6439 271.676 68.6389 276.955 68.6389C280.635 68.6389 284.314 68.6459 287.994 68.6309C288.439 68.6289 288.885 68.5079 289.406 68.4299C289.406 68.1369 289.374 67.9029 289.416 67.6829C289.45 67.5099 289.576 67.3529 289.673 67.1659C289.582 67.0419 289.494 66.9219 289.364 66.7429C289.697 66.3059 289.809 65.8129 289.403 65.3229C289.847 64.5909 289.555 63.7849 289.658 63.0279C288.908 62.6069 288.104 62.6339 287.295 62.6359C281.775 62.6439 276.256 62.6359 270.737 62.6469C270.289 62.6479 269.842 62.7559 269.32 62.8219C269.304 62.8069 269.217 62.7279 269.132 62.6509C268.659 63.0769 268.081 62.7979 267.556 62.8799C267.029 62.9619 266.498 63.1229 265.977 63.0959C265.413 63.0679 264.924 63.3389 264.395 63.3449C263.879 63.3519 263.463 63.6239 262.991 63.7379C262.481 63.8629 262.013 64.1719 261.453 64.0799C261.089 64.6369 260.336 63.9989 259.976 64.5699C259.596 64.5119 259.23 64.0239 258.838 64.5269C258.229 64.2059 257.444 64.4099 256.918 64.0409C256.537 63.7749 256.145 64.0009 255.827 63.7469C255.109 63.1719 254.345 62.6499 253.66 62.0389C252.323 60.8449 251.227 59.4369 250.266 57.9289C249.906 57.3629 249.458 56.8099 249.557 56.1229C250.252 55.3099 250.913 54.5379 251.585 53.7529C251.995 53.8319 252.404 53.6389 252.821 53.9699C253.089 54.1809 253.595 53.8289 253.935 54.1619C253.982 54.2089 254.076 54.2469 254.14 54.2349C255.09 54.0619 255.999 54.6309 256.913 54.4449C257.413 54.3439 257.702 54.8759 258.226 54.6299C258.529 54.4859 258.99 54.6979 259.382 54.7149C259.861 54.7349 260.404 54.5759 260.809 54.7509C261.544 55.0689 262.274 54.9489 263.002 54.9499C270.801 54.9659 278.601 54.9489 286.399 54.9809C287.001 54.9829 287.52 54.7369 288.099 54.7059C288.667 54.6749 289.287 54.9409 289.8 54.4789C290.67 54.6489 291.479 54.1709 292.315 54.2379C292.937 53.9429 293.536 53.6589 294.167 53.3589C294.182 53.3719 294.266 53.4989 294.363 53.5109C296.292 53.7629 299.436 54.8439 300.79 55.9419C301.831 56.7859 302.73 57.7749 302.885 59.2709C302.947 59.8689 303.26 60.4269 302.905 61.0209C302.891 61.0469 302.865 61.0929 302.875 61.1039C303.337 61.6509 302.971 62.1709 302.856 62.7189C302.483 64.5119 302.075 66.2919 301.442 68.0149C301.316 68.3589 301.304 68.7439 301.208 69.2799C301.538 69.6099 301.963 70.0759 302.43 70.4939C303.078 71.0759 303.465 71.7449 303.328 72.6459C303.311 72.7629 303.326 72.8859 303.326 73.0549C302.893 73.5059 302.488 74.0179 302.613 74.7439C302.021 74.9999 301.877 75.6909 301.233 76.0479C300.436 76.4369 299.453 76.3179 298.486 76.3179C288.287 76.3209 278.089 76.3199 267.89 76.3199H266.687C265.968 77.2419 266.126 78.3129 266.131 79.3459C266.137 80.3939 265.979 81.4599 266.486 82.5589H267.443C275.402 82.5589 283.361 82.5619 291.32 82.5509C291.729 82.5509 292.209 82.7829 292.474 82.2409C292.675 82.3759 292.793 82.4559 292.904 82.5299C292.994 82.4549 293.083 82.3819 293.209 82.2769C293.366 82.3709 293.524 82.4659 293.706 82.5739C293.855 82.4919 294.018 82.4029 294.229 82.2869C294.335 82.3659 294.454 82.4549 294.574 82.5449C294.649 82.4769 294.726 82.3559 294.826 82.3299C294.977 82.2909 295.145 82.3269 295.304 82.3179C296.791 82.2399 298.299 82.2879 299.758 82.0409C301.019 81.8269 302.315 81.7969 303.554 81.3849C304.021 81.2289 304.585 81.3599 305.107 81.3599C305.232 81.5189 305.359 81.6789 305.486 81.8399V86.1599Z" fill="white"/>
<path fill-rule="evenodd" clip-rule="evenodd" d="M199.406 0C199.85 0.502014 200.591 0.31601 201.077 0.719025C201.937 0.47702 202.689 0.952026 203.369 1.26401C204.76 1.90302 206.326 2.02502 207.641 2.83502C208.39 2.694 208.791 3.34003 209.5 3.59802H209.977C210.506 4.00101 210.985 4.328 211.423 4.70502C212.49 5.625 213.077 6.78601 213.085 8.21402C213.089 8.85303 213.157 9.50302 213.074 10.132C212.605 13.652 212.915 17.186 212.858 20.713C212.802 24.271 212.846 27.832 212.846 31.391V42.071V52.63V63.308C212.846 66.868 212.842 70.427 212.851 73.988C212.852 74.442 212.719 74.932 213.096 75.339C212.896 75.702 212.624 76.076 213.102 76.46C213.018 76.7 212.871 76.941 212.855 77.19C212.696 79.657 211.964 81.969 211.057 84.248C210.615 85.355 210.095 86.413 209.519 87.451C209.447 87.579 209.405 87.723 209.346 87.859C208.589 89.581 208.103 90.069 206.275 90.964C206.173 91.013 206.096 91.113 205.998 91.197H202.65C202.25 90.789 201.691 90.627 201.285 90.149C200.754 89.524 200.662 88.777 200.406 88.098C200.144 87.4 200.213 86.579 200.122 85.813C200.096 85.593 199.983 85.379 199.973 85.159C199.952 84.704 199.959 84.246 199.982 83.79C199.992 83.609 200.176 83.366 200.109 83.262C199.707 82.638 199.895 81.96 199.895 81.311C199.885 57.634 199.886 33.956 199.886 10.188C198.349 8.03601 196.223 6.45502 193.952 5.01901C193.771 4.33301 193.93 3.76102 194.379 3.207C194.857 2.61603 195.179 1.91202 195.74 1.37003C196.229 0.897003 196.831 0.551025 197.246 0H199.406Z" fill="white"/>
<path fill-rule="evenodd" clip-rule="evenodd" d="M47.9658 70.32C48.3968 70.257 48.4358 69.85 48.5868 69.567C49.4528 67.957 50.4558 68.002 51.7818 68.273C52.5268 68.426 53.2488 68.628 54.0248 68.66C55.0558 68.704 56.0778 68.909 57.1068 69.01C57.3728 69.035 57.7668 68.793 57.9008 68.907C58.1918 69.157 58.4828 69.083 58.7838 69.126C59.1198 69.174 59.4608 69.011 59.8108 69.273C59.9588 69.386 60.3458 69.133 60.6248 69.133C60.9548 69.132 61.2858 69.224 61.7808 69.303C61.7568 69.32 61.8798 69.236 62.0748 69.104C62.1818 69.16 62.3418 69.244 62.5628 69.36C78.5538 69.36 94.6228 69.363 110.692 69.349C111.379 69.349 112.063 69.169 112.752 69.129C113.43 69.089 114.144 69.249 114.781 69.084C115.437 68.915 116.078 68.928 116.729 68.87C117.376 68.81 118.019 68.683 118.663 68.6C119.396 68.507 120.129 68.289 120.869 68.165C121.584 68.044 122.351 68.081 123.011 67.83C123.714 67.561 124.486 67.615 125.16 67.221C125.495 67.026 125.963 67.058 126.473 66.969C126.812 67.141 127.241 67.359 127.719 67.601C127.989 68.127 128.279 68.689 128.605 69.324C128.605 69.314 128.593 69.395 128.607 69.471C128.854 70.719 128.22 71.698 127.58 72.641C127.146 73.281 126.572 73.825 126.069 74.418C125.282 75.346 124.149 75.853 123.288 76.695C123.149 76.831 122.856 76.795 122.651 76.881C122.175 77.08 121.723 77.346 121.233 77.508C120.772 77.66 120.231 77.623 119.814 77.839C119.537 77.982 119.299 77.991 119.038 77.995C118.039 78.008 117.032 77.933 116.044 78.035C115.687 78.072 115.376 77.545 115.041 77.996C114.744 77.588 114.312 77.805 113.939 77.763C113.562 77.721 113.202 77.778 112.822 77.551C112.557 77.391 112.121 77.519 111.761 77.519H68.3508C67.8698 77.519 67.2858 77.348 66.9368 77.562C66.4808 77.841 66.0698 77.532 65.6358 77.727C65.2478 77.901 64.7508 77.864 64.3018 77.953C63.5618 78.098 62.8368 78.277 62.1068 78.464C61.4198 78.639 60.6898 78.647 60.0278 78.953C59.9298 78.999 59.7908 78.969 59.6718 78.958C59.2888 78.922 58.9058 78.847 58.5228 78.846C58.1728 78.844 57.7368 79.066 57.4928 78.925C57.1478 78.725 56.8338 78.737 56.4918 78.72C56.1108 78.703 55.7438 78.549 55.4038 78.443C54.4898 78.16 53.6138 77.71 52.8178 77.18C51.9238 76.585 51.1008 75.874 50.2978 75.156C49.4958 74.438 48.8318 73.599 48.4118 72.585C48.3508 72.433 48.1188 72.353 47.9658 72.24V70.32Z" fill="white"/>
<path fill-rule="evenodd" clip-rule="evenodd" d="M291.086 0C291.245 0.453003 291.82 0.0990295 292.017 0.479004C293.148 0.578003 294.198 0.969025 295.236 1.39401C295.629 1.55402 296.116 1.23001 296.452 1.64502C297.033 1.40503 297.193 2.12402 297.676 2.17801C298.069 2.22302 298.435 2.46802 298.826 2.57202C299.761 2.82303 300.622 3.27902 301.499 3.64902C302.529 4.08401 303.399 4.89401 304.188 5.67801C304.355 6.00201 304.523 6.32602 304.7 6.66501C304.689 6.677 304.575 6.77002 304.584 6.78403C304.856 7.19901 304.738 7.66302 304.769 8.108C304.789 8.40903 304.649 8.74503 304.977 8.98801C305.037 9.03302 305.022 9.21701 305.002 9.328C304.934 9.69702 304.84 10.061 304.768 10.429C304.693 10.803 304.901 11.199 304.62 11.573C304.5 11.732 304.529 12.019 304.529 12.249C304.525 20.086 304.532 27.923 304.51 35.761C304.508 36.174 304.799 36.475 304.763 36.86C304.686 37.664 304.729 38.52 304.451 39.251C304.243 39.796 304.509 40.43 304.046 40.881C304.028 42.038 303.45 43.027 303.09 44.083C302.561 45.634 301.746 47.047 301.027 48.507C300.945 48.672 300.939 48.874 300.918 48.974C300.644 49.379 300.447 49.761 300.166 50.065C299.4 50.895 298.535 51.604 297.327 51.578C297.031 51.572 296.799 51.926 296.42 51.635C296.252 51.507 295.771 51.877 295.471 51.819C294.373 51.606 293.329 51.254 292.762 50.149C292.657 49.947 292.494 49.775 292.3 49.509C292.201 49.175 292.352 48.716 292.073 48.269C291.847 47.906 292.221 47.363 291.847 46.92C291.707 46.755 291.832 46.382 291.801 46.107C291.76 45.734 291.932 45.344 291.595 44.982C291.473 44.851 291.521 44.38 291.665 44.217C292.046 43.786 291.663 43.505 291.559 43.143C291.636 43.032 291.721 42.909 291.839 42.738C291.756 42.6 291.661 42.442 291.604 42.348C291.907 41.232 291.914 40.178 291.596 39.055C291.906 38.769 291.804 38.324 291.804 37.905C291.808 32.707 291.806 27.509 291.806 22.31C291.806 18.752 291.829 15.193 291.793 11.635C291.781 10.418 291.415 9.289 290.694 8.86401C289.897 8.39502 289.358 7.65802 288.673 7.08002C288.062 6.56403 287.4 6.108 286.757 5.63202C286.355 5.33502 285.947 5.048 285.642 4.82901C285.313 3.85303 285.994 3.33301 286.342 2.75403C286.777 2.03003 287.458 1.457 288 0.792999C288.267 0.468018 288.836 0.514008 288.926 0H291.086Z" fill="white"/>
<path fill-rule="evenodd" clip-rule="evenodd" d="M59.8441 13.4731C59.6961 13.4241 59.5911 13.3881 59.4741 13.3491C59.5451 13.2711 59.5961 13.2151 59.6511 13.1531C59.4361 12.7431 59.4621 12.3021 59.5141 11.7801C60.0621 11.0761 60.6501 10.3181 61.1861 9.6311C61.7981 9.53711 62.2681 9.68109 62.7521 9.8251C63.2211 9.9631 63.7121 9.80411 64.2281 10.0361C64.6941 10.2441 65.3291 10.0591 65.8881 10.0871C66.2591 10.1051 66.6261 10.1911 67.0851 10.2611C67.0871 10.2591 67.1761 10.1851 67.3281 10.0601C67.7931 10.3121 68.3271 10.5501 68.7901 10.0921C69.0911 10.1771 69.3391 10.3041 69.5901 10.3111C73.1151 10.4031 76.6411 10.5241 80.1671 10.5501C85.7661 10.5881 91.3641 10.5691 96.9631 10.5491C97.7701 10.5461 98.5741 10.3691 99.3831 10.3281C100.181 10.2891 101.015 10.4591 101.773 10.2831C102.631 10.0831 103.472 10.1351 104.32 10.0681C104.883 10.0251 105.466 9.9491 105.981 9.7421C106.256 9.6311 106.5 9.61511 106.762 9.60312C107.299 9.58112 107.816 9.5321 108.352 9.40012C108.858 9.27512 109.375 9.1701 109.875 9.0061C109.944 8.98309 109.997 8.89111 110.063 8.8851C110.908 8.78909 111.754 8.70309 112.54 8.62012C113.426 9.50711 114.271 10.3511 115.172 11.2521C115.277 12.0611 114.654 12.7051 114.309 13.4351C113.832 14.4371 113.031 15.2311 112.357 16.1011C111.62 17.0521 110.601 17.6851 109.543 18.2561C109.332 18.3691 109.166 18.5021 108.914 18.4831C108.675 18.4671 108.434 18.4791 108.194 18.4791H76.1181C75.9461 18.7481 75.7641 19.0351 75.5651 19.3451C75.5651 22.1941 75.5801 25.0731 75.5521 27.9511C75.5481 28.4401 75.6971 28.8421 75.9121 29.2801H82.2461C87.9641 29.2801 93.6831 29.2671 99.4011 29.2981C99.9991 29.3011 100.529 29.0921 101.101 29.0321C101.669 28.9731 102.268 29.2281 102.815 28.8201C102.97 28.7051 103.285 28.7731 103.521 28.8041C104.191 28.8941 104.825 28.6981 105.459 28.5511C106.078 28.4051 106.713 28.2381 107.325 28.1621C108.616 28.0041 109.836 27.3461 111.237 27.6541C112.025 28.4471 112.868 29.2971 113.663 30.0971C113.746 30.3891 113.815 30.6341 113.882 30.8711C113.605 30.9101 113.485 31.1491 113.354 31.4371C112.977 32.2681 112.5 33.0371 111.845 33.6951C111.41 34.1331 111.021 34.6221 110.655 35.1191C110.038 35.9591 109.085 36.3531 108.283 36.9441C107.958 37.1841 107.514 37.2151 107.074 37.2111C104.315 37.1881 101.556 37.2001 98.7971 37.2001C91.6391 37.2001 84.4801 37.1961 77.3221 37.2081C76.8381 37.2081 76.3541 37.3201 75.9801 37.3671C75.4931 37.9431 75.5661 38.4971 75.5661 39.0331C75.5641 41.7931 75.5651 44.5521 75.5651 47.3241C75.7291 47.6051 75.8981 47.8961 76.0271 48.1191C76.1271 48.1941 76.1551 48.2321 76.1881 48.2361C76.2681 48.2461 76.3481 48.2401 76.4281 48.2401H101.501H101.621H101.741H101.861C101.9 48.2401 101.94 48.2411 101.98 48.2391C102.02 48.2371 102.068 48.2461 102.094 48.2261C102.157 48.1771 102.207 48.1131 102.268 48.0601C102.289 48.0421 102.33 48.0191 102.35 48.0281C102.383 48.0441 102.407 48.0821 102.436 48.1091C102.464 48.1371 102.489 48.1711 102.521 48.1931C102.551 48.2141 102.588 48.2241 102.678 48.2641C102.806 48.1881 102.964 48.0941 103.146 47.9861C103.296 48.0681 103.458 48.1561 103.619 48.2451C103.916 48.1521 104.21 47.7241 104.501 48.2521C104.752 48.1661 104.994 48.0261 105.244 48.0101C106.134 47.9521 107.041 48.1271 107.905 47.7621C108.26 47.6141 108.574 47.9241 108.947 47.8731C109.78 47.7601 110.593 47.5271 111.444 47.5061C111.979 47.4921 112.532 47.6761 113.059 47.3591C113.525 47.0801 114.101 47.4251 114.629 47.0761C114.936 46.8741 115.484 47.0401 116.019 47.0401C116.174 47.2261 116.372 47.4661 116.668 47.8241C116.586 49.2391 116.496 50.8051 116.409 52.3081C116.133 52.7931 115.78 53.1861 115.675 53.6381C115.413 54.7611 114.438 55.1111 113.659 55.6751C112.896 56.2271 112.028 56.4101 111.081 56.4091C97.7261 56.3951 84.3691 56.4001 71.0131 56.3991C69.7451 56.3991 68.5791 55.9761 67.3971 55.5731C66.3961 55.2301 65.5571 54.6951 64.8301 53.9461C64.2421 53.3411 63.6151 51.8441 63.2851 50.9851C63.0631 50.4071 63.2581 49.7741 62.8701 49.2321C62.7191 49.0201 62.7421 48.5611 62.8651 48.2991C63.2371 47.5021 63.0761 46.6771 63.0771 45.8701C63.0911 36.8721 63.0801 27.8751 63.0991 18.8781C63.1001 18.3231 62.9871 17.8111 62.8391 17.3001C62.6971 16.8131 62.4451 16.3191 62.0011 16.1021C60.8751 15.5521 60.4501 14.4861 59.8441 13.4731Z" fill="white"/>
<path fill-rule="evenodd" clip-rule="evenodd" d="M186.44 38.754C186.45 39.523 186.563 40.314 185.966 40.952C186.028 41.981 185.296 42.552 184.666 43.172C184.213 43.618 183.509 43.638 182.786 43.78C182.2 43.894 181.731 43.504 181.196 43.677C180.952 43.758 180.701 43.815 180.41 43.895C179.521 43.46 178.522 43.76 177.556 43.684C177.251 43.661 176.918 43.608 176.697 43.921C175.841 43.495 174.937 43.719 174.05 43.716C173.734 44.092 173.307 43.91 172.935 43.911C169.654 43.926 166.375 43.915 163.095 43.926C162.633 43.927 162.172 44.042 161.711 44.045C161.318 44.048 160.927 43.959 160.533 43.921C160.023 43.872 159.537 43.934 159.115 44.252V58.469C159.229 58.583 159.313 58.668 159.457 58.81C160.078 58.686 160.77 58.985 161.456 58.589C161.678 58.461 162.094 58.671 162.593 58.755C162.714 58.721 163.008 58.277 163.329 58.867C163.701 58.374 164.221 58.74 164.694 58.598C165.245 58.433 165.884 58.579 166.482 58.554C167.012 58.532 167.54 58.461 168.161 58.403C168.154 58.395 168.24 58.475 168.325 58.554C168.409 58.476 168.495 58.396 168.626 58.274C168.769 58.356 168.922 58.445 169.066 58.527C169.157 58.453 169.246 58.38 169.367 58.28C169.528 58.374 169.687 58.467 169.867 58.572C170.019 58.49 170.181 58.401 170.391 58.286C170.498 58.367 170.616 58.457 170.694 58.515C170.883 58.447 171.054 58.334 171.229 58.328C171.907 58.307 172.588 58.33 173.268 58.315C173.574 58.308 174.012 58.367 174.159 58.196C174.479 57.824 174.703 58.421 174.933 58.188C175.242 57.875 175.405 58.238 175.47 58.289C175.951 58.2 176.289 58.059 176.609 58.094C177.797 58.224 178.951 57.933 180.106 57.802C181.24 57.673 182.392 57.53 183.503 57.312C185.401 56.939 187.333 56.642 189.158 55.927C190.087 55.564 190.964 55.063 191.95 54.841C192.082 54.811 192.18 54.626 192.3 54.506H193.812C194.304 55.168 194.745 55.843 195.271 56.444C195.716 56.953 195.879 57.501 195.815 57.975C194.006 60.774 192.212 63.407 189.668 65.443C188.969 65.86 188.105 65.598 187.343 65.796C186.284 66.07 185.24 65.922 184.193 66.007C183.703 66.046 183.217 66.148 182.733 66.244C182.475 66.297 182.284 65.942 181.948 66.212C181.754 66.367 181.331 66.24 181.011 66.24H180.171C179.852 66.24 179.531 66.246 179.211 66.238C178.736 66.226 178.371 66.675 177.781 66.4C177.378 66.212 176.781 66.455 176.27 66.475C175.75 66.496 175.229 66.473 174.71 66.482C174.406 66.487 174.13 66.466 173.829 66.692C173.545 66.906 173.101 66.393 172.729 66.719C172.475 66.359 172.116 66.817 171.987 66.697C171.671 66.403 171.454 66.716 171.207 66.733C170.358 66.791 169.487 66.515 168.652 66.935C168.529 66.997 168.238 66.718 167.996 66.992C167.843 66.904 167.684 66.811 167.502 66.708C167.352 66.791 167.189 66.88 166.981 66.994C166.873 66.912 166.755 66.823 166.637 66.733C166.56 66.804 166.473 66.885 166.339 67.008C166.191 66.915 166.036 66.817 165.905 66.735C164.658 67.168 163.386 66.858 162.142 66.969C161.89 66.99 161.647 67.12 161.391 67.203C161.307 67.129 161.22 67.052 161.129 66.97C161.049 67.045 160.964 67.122 160.823 67.25C160.426 66.893 159.972 66.793 159.583 67.244C159.391 67.122 159.264 67.041 159.106 66.94C158.961 67.021 158.799 67.111 158.637 67.201C158.298 67.098 158.009 66.713 157.589 67.106C157.454 67.233 157.146 67.194 156.916 67.196C155.796 67.204 154.666 67.295 153.559 67.179C151.489 66.963 149.512 66.436 148.105 64.726C147.674 64.201 147.327 63.606 146.895 62.976C146.779 62.247 146.689 61.424 146.415 60.631C146.316 60.345 146.367 60.006 146.367 59.69C146.365 54.69 146.351 49.69 146.381 44.691C146.386 43.883 146.135 43.275 145.557 42.744C144.492 41.765 143.536 40.691 142.749 39.47C142.389 38.912 142.079 38.17 142.047 37.614C142.71 36.833 143.366 36.06 144.011 35.301C144.392 35.305 144.761 35.143 145.034 35.511C145.118 35.435 145.202 35.361 145.286 35.286C145.695 35.69 146.2 35.761 146.762 35.771C147.851 35.79 148.919 36.123 150.023 36.012C150.14 36.001 150.272 36.166 150.441 36.277C150.556 36.2 150.68 36.117 150.828 36.016C151.076 36.084 151.402 36.287 151.634 36.209C151.931 36.108 152.131 36.127 152.411 36.221C152.662 36.306 152.965 36.243 153.245 36.239C153.562 36.233 153.984 36.345 154.171 36.185C154.522 35.883 154.692 36.283 154.968 36.265C156.044 36.201 157.126 36.251 158.206 36.23C158.416 36.226 158.625 36.097 158.864 36.016C159.681 36.381 160.534 36.295 161.598 36.076C162.441 36.382 163.495 36.328 164.621 36.067C165.603 36.348 166.656 36.344 167.844 36.012C167.873 36.04 167.979 36.222 168.091 36.226C168.81 36.252 169.529 36.246 170.249 36.225C170.337 36.223 170.42 36.075 170.546 35.957C171.422 36.696 172.137 35.817 173.006 35.866C173.006 35.347 173.039 34.991 173 34.643C172.828 33.14 173.317 31.681 173.259 30.181C173.2 28.704 173.249 27.222 173.245 25.742C173.242 24.615 173.333 23.479 172.911 22.319H171.898C168.858 22.319 165.818 22.307 162.778 22.328C162.01 22.333 161.218 22.162 160.475 22.553C160.038 22.784 159.57 22.194 159.117 22.559C157.93 22.408 156.908 23.013 155.831 23.324C155.176 23.512 154.548 23.741 153.854 23.77C153.324 23.792 152.83 24.131 152.274 23.997C152.097 23.954 151.927 23.876 151.758 23.815C151.614 23.87 151.415 24.027 151.277 23.985C150.068 23.617 148.859 23.351 147.799 22.5C146.586 21.525 145.538 20.403 144.473 19.302C143.75 18.555 143.243 17.604 142.726 16.682C142.55 16.368 142.559 16.1 142.517 15.718C143.139 14.994 143.799 14.227 144.452 13.469C145.51 13.361 146.472 13.541 147.416 13.882C147.557 13.933 147.725 13.91 147.881 13.92C149.207 14 150.534 14.074 151.86 14.168C151.998 14.177 152.127 14.297 152.271 14.37C152.329 14.317 152.415 14.238 152.535 14.126C152.916 14.274 153.329 14.674 153.713 14.174C154.026 14.254 154.315 14.389 154.604 14.39C159.964 14.403 165.323 14.405 170.684 14.389C171.13 14.387 171.578 14.246 172.023 14.158C172.469 14.07 172.957 14.352 173.383 13.939C173.506 13.819 173.848 13.895 174.084 13.925C174.84 14.017 175.496 13.704 176.164 13.437C176.508 13.301 176.828 13.077 177.182 13.005C177.546 12.929 177.915 12.95 178.315 13.078C179.482 13.448 180.597 13.999 181.828 14.17C181.997 14.193 182.14 14.374 182.307 14.455C182.507 14.552 182.72 14.62 183.076 14.758C183.509 15.122 184.049 15.63 184.644 16.061C185.271 16.518 185.335 17.349 185.966 17.87C185.966 18.055 185.941 18.292 185.973 18.519C186.003 18.736 186.092 18.944 186.186 19.261C185.937 19.554 185.801 19.969 186.259 20.4C186.158 20.533 186.067 20.652 185.963 20.789C186.22 21.458 186.369 22.14 186.036 22.874C185.915 23.139 185.983 23.491 185.966 23.803C185.886 25.211 185.889 26.63 185.686 28.018C185.603 28.586 185.528 29.151 185.476 29.723C185.428 30.253 185.352 30.822 185.196 31.289C184.94 32.056 185.12 32.824 184.926 33.571C184.736 34.303 184.525 35.034 184.511 35.806C184.507 36.043 184.324 36.276 184.244 36.462C184.833 37.449 185.931 37.814 186.44 38.754Z" fill="white"/>
<path fill-rule="evenodd" clip-rule="evenodd" d="M252.459 24.3439C253.167 24.2049 253.688 24.1009 254.211 23.9999C254.696 23.9049 255.222 24.2039 255.691 23.7879C255.826 23.6689 256.152 23.7609 256.391 23.7609C258.07 23.7599 259.76 23.6429 261.426 23.7919C263.113 23.9419 264.838 24.0239 266.446 24.6789C266.863 24.5169 267.212 25.0129 267.694 24.7679C267.879 24.6739 268.283 24.9869 268.578 25.1349C269.406 25.5509 270.222 25.9919 271.055 26.3959C272.725 27.2079 274.266 28.2139 275.457 29.6419C276.253 30.5939 276.888 31.6809 277.595 32.7089C277.596 33.4399 277.959 34.0789 278.141 34.7639C278.311 35.4089 278.396 36.0459 278.377 36.7079C278.373 36.8359 278.509 36.9679 278.582 37.0999C278.172 37.4229 278.334 37.7559 278.606 38.0869C278.525 38.3359 278.362 38.5889 278.38 38.8279C278.479 40.2119 277.998 41.4409 277.375 42.6169C276.647 43.9889 275.945 45.3929 274.752 46.4469C273.895 47.2049 272.947 47.8499 271.987 48.4669C271.357 48.8709 270.789 49.3749 270.051 49.6359C270.035 49.6219 269.979 49.5689 269.88 49.4769C268.562 50.1879 267.127 50.6079 265.64 50.9169C265.188 51.0109 264.704 50.9919 264.304 51.1509C263.846 51.3319 263.408 51.3209 262.952 51.3679C262.581 51.4059 262.21 51.4949 261.854 51.6059C261.482 51.7219 261.192 51.3889 260.81 51.4959C260.442 51.5979 260.039 51.5819 259.65 51.5959C259.251 51.6109 258.851 51.5989 258.451 51.5989H257.251H255.452C255.083 51.0549 254.343 51.6559 253.972 51.1199C252.734 51.3389 251.727 50.5009 250.554 50.3719C250.027 50.3139 249.542 49.9359 249.023 49.7429C247.547 49.1909 246.222 48.3529 244.921 47.4969C244.267 47.0659 243.713 46.4439 243.217 45.8259C242.512 44.9469 241.758 44.0889 241.333 43.0119C241.143 42.5319 240.895 42.0749 240.688 41.5999C240.4 40.9379 240.388 40.2099 240.214 39.5179C240.15 39.2629 240.215 39.0109 240.007 38.7539C239.883 38.5999 239.936 38.1899 240.056 37.9809C240.236 37.6649 240.249 37.4489 240.053 37.1399C239.941 36.9659 239.907 36.6579 239.98 36.4649C240.252 35.7499 240.277 34.9889 240.46 34.2619C240.631 33.5849 240.99 32.9689 241.202 32.2899C241.407 31.6319 241.86 31.0329 242.278 30.4619C243.22 29.1769 244.358 28.0899 245.72 27.2479C246.542 26.7399 247.393 26.2899 248.267 25.8719C249.206 25.4229 250.203 25.1319 251.166 24.7629C251.604 24.5969 252.111 24.5629 252.459 24.3439ZM266.117 39.7419C266.097 39.4669 266.269 38.9919 266.336 38.5109C266.52 37.2019 266.324 35.9219 265.65 34.7399C264.94 33.4989 263.941 32.6249 262.585 32.1539C262.271 32.0469 261.981 31.8739 261.596 31.6899C260.957 31.6769 260.957 31.6769 260.486 31.4399C260.256 31.7309 259.996 31.7699 259.666 31.5869C259.197 31.3259 258.705 31.3899 258.216 31.5479C258.038 31.6039 257.855 31.6499 257.671 31.6769C256.261 31.8849 254.956 32.3119 253.955 33.4059C253.632 33.7589 253.28 34.0859 252.941 34.4249C252.479 35.4859 252.115 36.5779 252.057 37.7199C252.217 38.4799 252.379 39.2479 252.559 40.1009C252.637 40.1749 252.823 40.2879 252.914 40.4539C253 40.6099 252.918 40.8889 253.026 40.9979C253.63 41.5999 254.01 42.4439 254.916 42.7319C255.156 42.8079 255.346 43.1739 255.56 43.1739C256.097 43.1749 256.475 43.4879 256.926 43.6559C257.367 43.8189 257.881 43.7889 258.393 43.8469C258.443 43.8059 258.533 43.7359 258.682 43.6169C259.041 43.9649 259.426 43.9609 259.924 43.8189C260.231 43.7329 260.62 43.6619 260.99 43.6609C261.437 43.6599 261.896 43.5609 262.324 43.4269C262.707 43.3069 263.077 43.1129 263.418 42.8939C263.802 42.6479 264.164 42.3569 264.504 42.0519C264.826 41.7609 265.146 41.4549 265.395 41.1029C265.65 40.7419 265.818 40.3169 266.117 39.7419Z" fill="white"/>
<path fill-rule="evenodd" clip-rule="evenodd" d="M281.041 12.22C282.006 13.184 282.934 14.113 283.957 15.136C283.669 15.732 283.405 16.432 283.015 17.053C281.786 19.005 280.654 21.039 278.611 22.559H277.615C268.704 22.559 259.793 22.577 250.882 22.537C249.855 22.532 248.876 22.77 247.865 22.826C246.941 22.877 246.03 23.102 245.142 23.461C244.523 23.711 243.788 23.664 243.107 23.763C242.891 23.795 242.681 23.871 242.435 23.936C242.153 23.598 241.82 23.698 241.525 23.966C240.812 23.776 240.124 23.595 239.263 23.368C238.924 23.16 238.396 22.868 237.902 22.528C236.962 21.881 235.967 21.311 235.14 20.504C234.613 19.989 234.109 19.459 233.487 19.025C232.98 18.671 232.678 18.025 232.286 17.508C232.125 17.295 231.967 17.081 231.776 16.825C232.149 16.335 232.096 15.635 232.595 15.15C233.035 14.721 233.39 14.205 233.854 13.639C234.44 13.728 235.122 13.712 235.691 13.956C236.121 14.139 236.511 14.127 236.927 14.16C237.893 14.239 238.859 14.314 239.823 14.409C239.918 14.418 240 14.556 239.989 14.547C240.319 14.489 240.604 14.503 240.816 14.385C241.085 14.234 241.216 14.881 241.506 14.459C241.539 14.409 241.886 14.632 242.084 14.627C242.415 14.618 242.744 14.526 243.096 14.466C243.385 14.518 243.714 14.63 244.044 14.632C246.641 14.646 249.238 14.639 251.836 14.639C257.311 14.639 262.785 14.643 268.26 14.632C268.707 14.631 269.154 14.516 269.651 14.448C269.684 14.477 269.769 14.554 269.826 14.607C270.46 14.194 271.153 14.5 271.797 14.398C272.44 14.297 273.071 14.157 273.734 14.131C274.354 14.106 274.954 13.761 275.577 13.701C276.229 13.639 276.825 13.424 277.448 13.285C278.068 13.148 278.672 13.002 279.262 12.738C279.834 12.482 280.474 12.379 281.041 12.22Z" fill="white"/>
<path fill-rule="evenodd" clip-rule="evenodd" d="M264.493 4.04198C264.67 4.17696 264.788 4.26897 264.902 4.35698C265.339 3.90596 265.888 4.38298 266.324 4.09096C266.435 4.01598 266.637 4.08797 266.796 4.07796C267.457 4.03798 268.146 4.09398 268.77 3.91896C269.402 3.74098 270.053 3.98796 270.69 3.63497C271.12 3.39497 271.646 3.73097 272.04 4.10396C272.265 5.40498 272.843 6.66597 272.583 7.96596C272.486 8.19896 272.409 8.36696 272.348 8.53996C271.919 9.73097 270.979 10.413 269.917 10.965C269.229 11.322 268.537 11.68 267.826 11.991C267.354 12.197 266.855 12.393 266.35 12.466C264.786 12.689 263.245 13.13 261.638 12.97C261.394 12.946 261.135 13.07 260.748 13.154C260.722 13.139 260.561 13.049 260.349 12.93C260.247 13.002 260.126 13.088 259.961 13.204C259.902 13.186 259.793 13.165 259.692 13.122C259.59 13.079 259.489 12.958 259.401 12.969C259.034 13.02 258.563 13.284 258.334 13.141C257.978 12.921 257.654 12.958 257.323 12.969C256.159 13.011 255.064 12.642 253.954 12.403C253.02 12.201 252.138 11.754 251.203 11.548C250.711 11.438 250.468 11.038 250.031 10.891C248.916 10.517 247.996 9.80797 247.032 9.14998C245.969 8.42497 245.21 7.42098 244.292 6.56798C244.104 6.39397 244.014 6.11897 243.841 5.92296C243.467 5.49898 243.266 5.02696 243.334 4.40996C244.199 3.44798 245.091 2.45598 245.999 1.44496C246.795 1.39998 247.502 1.66496 248.192 1.92998C248.812 2.16896 249.329 2.58998 250.05 2.67796C250.659 2.75398 251.236 3.06996 251.89 3.14696C252.656 3.23695 253.398 3.53597 254.15 3.74397C254.258 3.77397 254.365 3.84096 254.47 3.83498C255.726 3.76198 256.942 4.22496 258.206 4.09398C258.569 4.05498 258.967 3.95998 259.317 4.30596C259.583 4.56798 259.914 4.00896 260.323 4.29097C260.59 4.47398 261.021 4.15898 261.431 4.29497C261.79 4.41396 262.221 4.31896 262.62 4.31896C263.06 4.31896 263.501 4.34297 263.937 4.30797C264.108 4.29497 264.269 4.15398 264.493 4.04198Z" fill="white"/>
<path d="M55.129 139.461C57.175 139.461 58.5359 139.302 59.209 138.984C59.965 138.668 60.3439 138.017 60.3439 137.033V109.715C60.3439 108.953 60.0639 108.335 59.503 107.857C58.9149 107.383 58.129 107.144 57.1479 107.144C54.961 107.144 52.843 108.001 50.797 109.715C49.283 110.984 47.896 112.649 46.6329 114.712L45.877 114.427L48.862 105.431H76.7899L79.8589 114.854L79.061 115.14C77.771 112.793 76.396 110.952 74.938 109.619C73.087 107.906 71.153 107.05 69.134 107.05C68.125 107.05 67.242 107.303 66.4839 107.81C65.755 108.319 65.391 108.953 65.391 109.715V137.033C65.391 137.985 65.797 138.636 66.6109 138.984C67.339 139.302 68.629 139.461 70.4799 139.461V140.982H55.129V139.461Z" fill="white"/>
<path d="M99.2157 121.423C101.122 121.423 102.665 120.661 103.843 119.138C104.992 117.647 105.567 115.696 105.567 113.284C105.567 111.094 104.852 109.493 103.422 108.477C102.104 107.524 100.113 107.05 97.4487 107.05C95.7947 107.05 94.6167 107.256 93.9167 107.668C93.2437 108.081 92.9067 108.779 92.9067 109.762V121.423H99.2157ZM83.9067 139.461C85.2247 139.461 86.1777 139.287 86.7667 138.937C87.4957 138.493 87.8607 137.716 87.8607 136.605V109.762C87.8607 108.747 87.5657 108.049 86.9767 107.668C86.3877 107.256 85.3787 107.05 83.9487 107.05V105.431H101.151C104.431 105.431 107.011 106.257 108.889 107.906C110.599 109.397 111.455 111.333 111.455 113.713C111.455 116.44 110.754 118.583 109.352 120.137C108.034 121.597 106.114 122.534 103.59 122.945C105.384 123.422 106.786 124.786 107.796 127.039C108.385 128.34 108.959 130.481 109.52 133.464C109.716 134.416 109.857 135.098 109.941 135.511C110.109 136.24 110.277 136.843 110.446 137.319C110.809 138.239 111.314 138.636 111.96 138.509C112.576 138.383 113.193 137.795 113.81 136.748C114.034 136.271 114.258 136.097 114.483 136.224C114.679 136.351 114.707 136.748 114.567 137.414C114.231 138.62 113.656 139.62 112.843 140.412C112.086 141.141 111.23 141.618 110.277 141.841C109.324 142.094 108.441 142.061 107.628 141.745C106.758 141.395 106.099 140.825 105.651 140.032C105.342 139.492 105.048 138.716 104.768 137.699C104.571 137.097 104.305 136.064 103.969 134.606C103.296 131.592 102.693 129.386 102.16 127.99C101.262 125.611 100.127 123.962 98.7537 123.041H92.9067V136.605C92.9067 137.747 93.2997 138.524 94.0847 138.937C94.7577 139.287 95.9627 139.461 97.7017 139.461V140.982H83.9067V139.461Z" fill="white"/>
<path d="M117.984 139.461C119.414 139.461 120.451 139.27 121.096 138.889C121.853 138.445 122.232 137.731 122.232 136.748V109.856C122.232 108.779 121.98 108.049 121.475 107.668C120.886 107.256 119.722 107.05 117.984 107.05V105.431H143.218L146.163 113.903L145.489 114.379C144.115 112.285 142.475 110.619 140.569 109.382C138.186 107.827 135.564 107.05 132.704 107.05C130.797 107.05 129.48 107.209 128.751 107.524C127.741 108.001 127.237 108.922 127.237 110.286V122.041H132.62C134.274 122.041 135.438 121.582 136.111 120.661C136.755 119.804 137.218 118.138 137.499 115.664H138.844V130.227H137.415C137.19 127.784 136.784 126.119 136.195 125.23C135.522 124.183 134.358 123.659 132.704 123.659H127.237V136.748C127.237 137.763 127.573 138.477 128.246 138.889C128.891 139.27 129.998 139.461 131.568 139.461H134.386C136.265 139.461 138.157 138.874 140.064 137.699C142.307 136.367 144.339 134.399 146.163 131.798L147.088 132.273L143.597 140.982H117.984V139.461Z" fill="white"/>
<path d="M150.714 139.461C152.145 139.461 153.181 139.27 153.826 138.889C154.583 138.445 154.962 137.731 154.962 136.748V109.856C154.962 108.779 154.71 108.049 154.206 107.668C153.616 107.256 152.452 107.05 150.714 107.05V105.431H175.948L178.894 113.903L178.219 114.379C176.845 112.285 175.206 110.619 173.299 109.382C170.917 107.827 168.294 107.05 165.435 107.05C163.527 107.05 162.21 107.209 161.481 107.524C160.471 108.001 159.967 108.922 159.967 110.286V122.041H165.351C167.004 122.041 168.168 121.582 168.841 120.661C169.485 119.804 169.948 118.138 170.229 115.664H171.574V130.227H170.146C169.92 127.784 169.514 126.119 168.925 125.23C168.252 124.183 167.088 123.659 165.435 123.659H159.967V136.748C159.967 137.763 160.303 138.477 160.977 138.889C161.621 139.27 162.729 139.461 164.298 139.461H167.116C168.995 139.461 170.887 138.874 172.794 137.699C175.037 136.367 177.069 134.399 178.894 131.798L179.818 132.273L176.327 140.982H150.714V139.461Z" fill="white"/>
<path d="M184.749 139.461C186.571 139.461 187.721 139.318 188.198 139.032C188.927 138.683 189.291 137.795 189.291 136.367V110.619C189.291 109.35 188.982 108.462 188.366 107.954C187.693 107.351 186.487 107.05 184.749 107.05V105.431H199.638V107.05C197.814 107.05 196.469 107.256 195.6 107.668C194.702 108.113 194.254 108.874 194.254 109.953V121.994H209.185V110.286C209.185 109.143 208.749 108.303 207.881 107.763C207.067 107.287 205.918 107.05 204.432 107.05V105.431H218.773V107.05C217.455 107.05 216.404 107.256 215.619 107.668C214.694 108.144 214.231 108.874 214.231 109.856V136.367C214.231 137.731 214.68 138.62 215.577 139.032C216.138 139.318 217.218 139.461 218.815 139.461V140.982H204.306V139.461C205.876 139.461 206.97 139.334 207.586 139.08C208.651 138.699 209.185 137.922 209.185 136.748V123.612H194.254V136.081C194.254 137.636 194.66 138.62 195.474 139.032C196.034 139.318 197.422 139.461 199.638 139.461V140.982H184.749V139.461Z" fill="white"/>
<path d="M223.326 139.461C224.756 139.461 225.793 139.27 226.438 138.889C227.195 138.445 227.574 137.731 227.574 136.748V109.856C227.574 108.779 227.321 108.049 226.817 107.668C226.229 107.256 225.064 107.05 223.326 107.05V105.431H248.561L251.505 113.903L250.832 114.379C249.458 112.285 247.817 110.619 245.911 109.382C243.527 107.827 240.906 107.05 238.046 107.05C236.139 107.05 234.821 107.209 234.093 107.524C233.084 108.001 232.579 108.922 232.579 110.286V122.041H237.962C239.616 122.041 240.78 121.582 241.453 120.661C242.097 119.804 242.561 118.138 242.841 115.664H244.187V130.227H242.757C242.532 127.784 242.126 126.119 241.537 125.23C240.864 124.183 239.7 123.659 238.046 123.659H232.579V136.748C232.579 137.763 232.915 138.477 233.588 138.889C234.232 139.27 235.34 139.461 236.911 139.461H239.729C241.606 139.461 243.499 138.874 245.406 137.699C247.649 136.367 249.681 134.399 251.505 131.798L252.43 132.273L248.939 140.982H223.326V139.461Z" fill="white"/>
<path d="M265.31 126.515H276.328L270.776 109.286L265.31 126.515ZM285.076 137.129C285.301 137.889 285.763 138.477 286.464 138.889C287.137 139.27 288.021 139.461 289.114 139.461V140.982H275.445V139.461C277.323 139.461 278.529 139.302 279.062 138.984C279.763 138.541 279.93 137.669 279.566 136.367L276.917 128.324H264.679L262.533 135.034C261.944 136.907 261.959 138.144 262.575 138.747C263.023 139.222 264.104 139.461 265.814 139.461V140.982H256.098V139.461C257.388 139.461 258.342 139.159 258.959 138.556C259.604 137.922 260.29 136.557 261.02 134.463L270.062 105.812L274.562 104.622L285.076 137.129Z" fill="white"/>
<path d="M292.658 139.461C293.92 139.461 294.914 139.302 295.644 138.984C296.625 138.572 297.116 137.937 297.116 137.081V109.049C297.116 108.19 296.891 107.636 296.443 107.383C295.938 107.161 294.761 107.05 292.91 107.05V105.431H307.462V107.05C305.527 107.05 304.181 107.161 303.425 107.383C302.554 107.668 302.121 108.223 302.121 109.049V137.081C302.121 138.002 302.387 138.636 302.92 138.984C303.396 139.302 304.209 139.461 305.359 139.461H311.457C312.971 139.461 314.626 138.778 316.42 137.414C318.383 135.955 319.938 134.114 321.089 131.893L322.013 132.369L318.733 140.982H292.658V139.461Z" fill="white"/>
<path d="M0 175.954V162.65H3.858C6.319 162.65 8.16499 163.19 9.396 164.269C10.626 165.348 11.242 166.97 11.242 169.136C11.242 171.188 10.558 172.839 9.19099 174.085C7.82401 175.331 5.994 175.954 3.702 175.954H0ZM1.637 164.06V174.544H3.721C5.55299 174.544 6.978 174.077 7.998 173.143C9.017 172.209 9.52699 170.886 9.52699 169.173C9.52699 167.466 9.05099 166.186 8.10001 165.336C7.14799 164.486 5.722 164.06 3.819 164.06H1.637Z" fill="white"/>
<path d="M18.4177 175.954H16.7817V162.65H18.4177V175.954Z" fill="white"/>
<path d="M35.3258 175.045C34.6248 175.422 33.8838 175.705 33.1048 175.893C32.3258 176.082 31.5078 176.176 30.6498 176.176C28.6038 176.176 26.9788 175.589 25.7748 174.414C24.5698 173.239 23.9678 171.593 23.9678 169.478C23.9678 167.32 24.6418 165.605 25.9888 164.334C27.3368 163.063 29.0658 162.427 31.1758 162.427C31.9488 162.427 32.6668 162.504 33.3288 162.655C33.9918 162.806 34.6668 163.049 35.3548 163.384L34.6828 164.645C34.1048 164.36 33.5368 164.155 32.9788 164.028C32.4198 163.901 31.8158 163.838 31.1668 163.838C29.5688 163.838 28.2548 164.32 27.2268 165.285C26.1968 166.25 25.6818 167.61 25.6818 169.367C25.6818 171.148 26.1338 172.495 27.0368 173.407C27.9388 174.32 29.2118 174.776 30.8548 174.776C31.3998 174.776 31.9098 174.724 32.3838 174.623C32.8578 174.52 33.2928 174.364 33.6888 174.154V170.424H30.6308V169.014H35.3258V175.045Z" fill="white"/>
<path d="M42.9998 175.954H41.3628V162.65H42.9998V175.954Z" fill="white"/>
<path d="M57.7062 164.06H53.6732V175.954H52.0372V164.06H48.0142V162.65H57.7062V164.06Z" fill="white"/>
<path d="M61.0928 175.954L66.4508 162.65H68.1458L73.5228 175.954H71.7108L70.2988 172.391H64.2498L62.9148 175.954H61.0928ZM64.7948 170.991H69.7628L67.5028 165.155C67.4638 165.062 67.4278 164.942 67.3958 164.794C67.3628 164.645 67.3278 164.468 67.2888 164.264H67.2498C67.2168 164.45 67.1828 164.617 67.1468 164.765C67.1118 164.914 67.0708 165.044 67.0248 165.155L64.7948 170.991Z" fill="white"/>
<path d="M85.6191 175.954H78.3721V162.65H80.0081V174.544H85.6191V175.954Z" fill="white"/>
<path d="M109.314 175.954H107.677V169.886H100.449V175.954H98.813V162.65H100.449V168.485H107.677V162.65H109.314V175.954Z" fill="white"/>
<path d="M123.173 175.954H115.77V162.65H122.861V164.06H117.406V168.485H122.452V169.886H117.406V174.544H123.173V175.954Z" fill="white"/>
<path d="M127.037 175.954L132.395 162.65H134.09L139.467 175.954H137.655L136.243 172.391H130.193L128.859 175.954H127.037ZM130.739 170.991H135.707L133.447 165.155C133.408 165.062 133.372 164.942 133.34 164.794C133.307 164.645 133.271 164.468 133.232 164.264H133.193C133.161 164.45 133.127 164.617 133.091 164.765C133.056 164.914 133.015 165.044 132.969 165.155L130.739 170.991Z" fill="white"/>
<path d="M151.562 175.954H144.315V162.65H145.952V174.544H151.562V175.954Z" fill="white"/>
<path d="M164.74 164.06H160.707V175.954H159.07V164.06H155.047V162.65H164.74V164.06Z" fill="white"/>
<path d="M180.246 175.954H178.609V169.886H171.381V175.954H169.745V162.65H171.381V168.485H178.609V162.65H180.246V175.954Z" fill="white"/>
<path d="M196.539 175.286C195.864 175.595 195.205 175.821 194.562 175.964C193.92 176.105 193.221 176.176 192.468 176.176C190.357 176.176 188.716 175.567 187.543 174.348C186.371 173.131 185.785 171.532 185.785 169.552C185.785 167.381 186.439 165.651 187.748 164.362C189.057 163.072 190.764 162.427 192.867 162.427C193.523 162.427 194.139 162.486 194.713 162.604C195.288 162.721 195.884 162.91 196.5 163.17L195.896 164.45C195.384 164.233 194.887 164.078 194.406 163.981C193.926 163.886 193.406 163.838 192.848 163.838C191.211 163.838 189.91 164.341 188.946 165.345C187.982 166.35 187.5 167.721 187.5 169.46C187.5 171.087 187.963 172.379 188.888 173.338C189.813 174.297 191.039 174.776 192.564 174.776C193.131 174.776 193.684 174.717 194.227 174.599C194.768 174.482 195.322 174.29 195.887 174.024L196.539 175.286Z" fill="white"/>
<path d="M200.229 175.954L205.586 162.65H207.281L212.658 175.954H210.847L209.435 172.391H203.385L202.051 175.954H200.229ZM203.931 170.991H208.898L206.639 165.155C206.6 165.062 206.564 164.942 206.531 164.794C206.499 164.645 206.463 164.468 206.424 164.264H206.385C206.354 164.45 206.318 164.617 206.283 164.765C206.248 164.914 206.207 165.044 206.161 165.155L203.931 170.991Z" fill="white"/>
<path d="M227.404 175.954H225.456L223.06 172.178C222.611 171.473 222.229 171.02 221.91 170.819C221.592 170.618 221.205 170.517 220.751 170.517H219.144V175.954H217.508V162.65H221.676C222.891 162.65 223.902 162.956 224.711 163.569C225.52 164.18 225.924 165.084 225.924 166.278C225.924 167.218 225.667 168.006 225.154 168.643C224.641 169.28 223.937 169.741 223.04 170.026V170.063C223.332 170.229 223.589 170.412 223.81 170.61C224.03 170.808 224.264 171.098 224.512 171.482L227.404 175.954ZM219.144 164.06V169.107H221.365C222.176 169.107 222.854 168.856 223.396 168.356C223.937 167.854 224.209 167.206 224.209 166.407C224.209 165.696 223.967 165.128 223.483 164.7C223 164.274 222.3 164.06 221.385 164.06H219.144Z" fill="white"/>
<path d="M239.637 175.954H232.232V162.65H239.324V164.06H233.869V168.485H238.915V169.886H233.869V174.544H239.637V175.954Z" fill="white"/>
<path d="M255.012 171.074V175.954H253.376V162.65H257.214C258.707 162.65 259.865 163.003 260.687 163.708C261.508 164.413 261.919 165.409 261.919 166.695C261.919 167.975 261.463 169.025 260.551 169.844C259.638 170.665 258.405 171.074 256.854 171.074H255.012ZM255.012 164.06V169.664H256.727C257.857 169.664 258.719 169.412 259.312 168.908C259.907 168.404 260.205 167.691 260.205 166.769C260.205 165.866 259.932 165.189 259.387 164.737C258.841 164.286 258.022 164.06 256.932 164.06H255.012Z" fill="white"/>
<path d="M274.589 175.954H267.342V162.65H268.979V174.544H274.589V175.954Z" fill="white"/>
<path d="M277.908 175.954L283.266 162.65H284.961L290.338 175.954H288.525L287.113 172.391H281.064L279.73 175.954H277.908ZM281.609 170.991H286.578L284.318 165.155C284.279 165.062 284.243 164.942 284.211 164.794C284.178 164.645 284.143 164.468 284.104 164.264H284.064C284.032 164.45 283.998 164.617 283.963 164.765C283.927 164.914 283.886 165.044 283.84 165.155L281.609 170.991Z" fill="white"/>
<path d="M303.428 164.06H299.395V175.954H297.758V164.06H293.734V162.65H303.428V164.06Z" fill="white"/>
<path d="M315.523 164.06H310.068V168.662H315.114V170.063H310.068V175.954H308.432V162.65H315.523V164.06Z" fill="white"/>
<path d="M326.597 176.176C324.615 176.176 323.029 175.555 321.838 174.311C320.646 173.069 320.051 171.451 320.051 169.46C320.051 167.32 320.658 165.613 321.872 164.339C323.086 163.064 324.739 162.427 326.83 162.427C328.76 162.427 330.312 163.046 331.492 164.283C332.67 165.52 333.26 167.137 333.26 169.136C333.26 171.305 332.656 173.022 331.447 174.284C330.24 175.546 328.623 176.176 326.597 176.176ZM326.597 174.776C328.129 174.776 329.337 174.299 330.221 173.346C331.104 172.394 331.545 171.061 331.545 169.348C331.545 167.592 331.116 166.234 330.26 165.276C329.402 164.317 328.22 163.838 326.713 163.838C325.246 163.838 324.055 164.342 323.139 165.35C322.223 166.358 321.765 167.681 321.765 169.321C321.765 170.96 322.211 172.279 323.104 173.277C323.997 174.276 325.161 174.776 326.597 174.776Z" fill="white"/>
<path d="M348.697 175.954H346.748L344.352 172.178C343.904 171.473 343.521 171.02 343.203 170.819C342.885 170.618 342.498 170.517 342.043 170.517H340.436V175.954H338.8V162.65H342.969C344.184 162.65 345.195 162.956 346.004 163.569C346.812 164.18 347.216 165.084 347.216 166.278C347.216 167.218 346.959 168.006 346.446 168.643C345.934 169.28 345.229 169.741 344.332 170.026V170.063C344.625 170.229 344.881 170.412 345.102 170.61C345.322 170.808 345.557 171.098 345.804 171.482L348.697 175.954ZM340.436 164.06V169.107H342.657C343.469 169.107 344.146 168.856 344.687 168.356C345.23 167.854 345.502 167.206 345.502 166.407C345.502 165.696 345.26 165.128 344.775 164.7C344.292 164.274 343.592 164.06 342.677 164.06H340.436Z" fill="white"/>
<path d="M367.768 175.954H366.141V167.029C366.141 166.676 366.151 166.284 366.174 165.85C366.197 165.418 366.23 164.948 366.276 164.44H366.237C366.16 164.737 366.086 164.994 366.018 165.211C365.95 165.427 365.883 165.6 365.818 165.73L361.045 175.954H360.246L355.483 165.804C355.418 165.656 355.35 165.468 355.279 165.239C355.207 165.01 355.136 164.744 355.064 164.44H355.025C355.051 164.707 355.07 165.056 355.084 165.489C355.097 165.922 355.104 166.441 355.104 167.048V175.954H353.525V162.65H355.687L359.975 171.927C360.143 172.28 360.281 172.59 360.388 172.855C360.495 173.121 360.571 173.343 360.617 173.523H360.676C360.818 173.158 360.945 172.84 361.055 172.567C361.166 172.296 361.263 172.07 361.348 171.89L365.721 162.65H367.768V175.954Z" fill="white"/>
</svg>
