<svg width="265" height="264" viewBox="0 0 265 264" fill="none" xmlns="http://www.w3.org/2000/svg">
<path d="M130.988 0.497002L130.986 0C115.418 13.568 111.543 41.631 130.755 60.826V61.352C130.843 61.268 130.927 61.178 131.014 61.093C131.066 61.144 131.112 61.196 131.164 61.247L131.163 60.945C146.722 45.721 153.483 19.641 130.988 0.497002Z" fill="white"/>
<path d="M111.791 106.087L112.123 106.543C112.144 106.43 112.158 106.318 112.178 106.205C112.258 106.228 112.334 106.254 112.414 106.276L112.212 106C115.488 87.121 105.585 68.2101 79.8787 61.7661L79.5757 61.3521C79.5657 61.4601 79.5617 61.5701 79.5517 61.679L79.5137 61.6691L79.5487 61.718C78.0857 78.8521 88.7578 99.3161 111.791 106.087Z" fill="white"/>
<path d="M95.046 147.84L95.29 148.16C95.295 148.07 95.296 147.979 95.301 147.889C95.385 147.903 95.464 147.922 95.548 147.936L95.312 147.628C96.009 131.992 89.223 114.076 66.733 110.4L66.485 110.077C66.476 110.167 66.472 110.26 66.463 110.351L66.43 110.345L66.461 110.385C65.138 124.87 72.856 143.88 95.046 147.84Z" fill="white"/>
<path d="M168.25 147.84L168.006 148.16C168.001 148.07 167.999 147.979 167.995 147.889C167.911 147.903 167.831 147.922 167.747 147.936L167.984 147.628C167.287 131.992 174.073 114.076 196.562 110.4L196.811 110.077C196.819 110.167 196.824 110.26 196.833 110.351L196.866 110.345L196.835 110.385C198.157 124.87 190.44 143.88 168.25 147.84Z" fill="white"/>
<path d="M148.485 105.689C148.489 105.788 148.487 105.885 148.492 105.985L148.793 105.598C168.271 99.925 182.796 88.4821 182.759 61.7991L183.105 61.3521C182.991 61.3761 182.877 61.4061 182.763 61.431C182.762 61.4171 182.763 61.4041 182.763 61.3911L182.725 61.44C164.897 65.3241 147.714 81.6301 148.479 105.344L148.127 105.794C148.247 105.76 148.365 105.723 148.485 105.689Z" fill="white"/>
<path d="M121.168 189.849C116.456 182.406 108.186 176.198 97.339 167.721C90.789 162.602 85.399 159.088 78.956 154.785C70.479 149.126 63.244 145.844 58.02 142.7C64.211 151.551 82.229 167.043 91.787 177.764C104.383 191.891 106.565 201.205 107.275 203.636C115.375 231.376 104.177 245.753 102.68 248.062C94.403 260.828 81.692 260.745 75.276 262.373C70.873 263.49 90.149 264.404 99.787 262.373C106.98 260.856 118.51 258.785 125.424 246.87C131.706 236.045 130.958 224.53 129.509 214.189C128.787 209.036 127.374 199.647 121.168 189.849Z" fill="white"/>
<path d="M170.878 177.764C180.192 167.043 198.772 151.551 204.808 142.7C199.702 144.762 191.644 149.126 183.383 154.785C177.102 159.088 172 161.594 165.617 166.713C155.045 175.19 146.836 182.406 142.242 189.849C136.194 199.647 134.817 209.036 134.113 214.189C132.702 224.53 131.973 236.045 138.095 246.87C144.834 258.785 156.069 260.856 163.081 262.373C172.474 264.404 191.261 263.49 186.969 262.373C180.716 260.745 168.328 260.828 160.261 248.062C158.802 245.753 147.888 231.376 155.781 203.636C156.474 201.205 158.602 191.891 170.878 177.764Z" fill="white"/>
<path d="M48.8548 110.6L49.2228 110.857C49.2248 110.758 49.2158 110.659 49.2148 110.561C49.2488 110.557 49.2828 110.555 49.3168 110.55L49.2128 110.479C49.1058 94.3889 29.3748 76.3419 6.7738 80.9848L6.4248 80.7419C6.4248 97.0999 27.5638 113.179 48.8548 110.6Z" fill="white"/>
<path d="M69.4851 88.5859L69.7611 88.9399C69.7911 88.8469 69.8121 88.7499 69.8411 88.6559C69.8751 88.6609 69.9071 88.67 69.9411 88.6749L69.8631 88.5759C74.5301 73.1769 61.0371 50.0929 38.0741 47.827L37.8131 47.4919C32.9641 63.116 48.3871 84.7369 69.4851 88.5859Z" fill="white"/>
<path d="M48.792 141.876L49.214 142.026C49.19 141.932 49.155 141.838 49.129 141.744C49.161 141.731 49.193 141.72 49.224 141.707L49.105 141.665C44.767 126.17 20.982 113.951 0.399002 124.38L0 124.238C4.304 140.019 28.932 149.967 48.792 141.876Z" fill="white"/>
<path d="M103.406 61.3519C103.424 61.2539 103.438 61.1539 103.456 61.0569C103.514 61.0729 103.569 61.0919 103.627 61.1089L103.484 60.8869C106.609 43.4109 98.822 21.5749 74.965 16.7319L74.73 16.3689C70.82 32.6369 81.447 54.7479 103.159 60.9669L103.406 61.3519Z" fill="white"/>
<path d="M188.184 17.0538L188.437 16.6748C188.34 16.6968 188.243 16.7238 188.146 16.7468C188.139 16.6878 188.135 16.6288 188.126 16.5688L187.98 16.7878C170.706 20.8898 153.785 36.7368 158.855 60.5478L158.616 60.9078C175.097 58.0068 191.137 39.4458 188.184 17.0538Z" fill="white"/>
<path d="M192.068 89.0229C208.75 87.7129 226.494 70.7749 225.698 48.2029L225.987 47.8489C225.889 47.8609 225.79 47.8799 225.691 47.8929C225.688 47.8329 225.69 47.7739 225.687 47.7129L225.521 47.9179C207.935 50.3459 189.574 64.5009 192.342 88.6869L192.068 89.0229Z" fill="white"/>
<path d="M213.222 109.808L212.86 110.046C229.162 113.816 251.181 103 257.213 81.2329L257.594 80.9839C257.496 80.9659 257.396 80.9529 257.299 80.9359C257.314 80.8779 257.334 80.8219 257.35 80.7639L257.129 80.9089C239.628 77.9349 217.858 85.9089 213.222 109.808Z" fill="white"/>
<path d="M264.114 125C264.146 124.949 264.181 124.901 264.212 124.85L263.959 124.925C248.061 117.025 224.917 118.375 213.577 139.918L213.164 140.041C227.684 148.357 251.887 144.358 263.945 125.26L264.383 125.131C264.295 125.086 264.203 125.045 264.114 125Z" fill="white"/>
<path d="M254.291 169.373H254.031C241.218 157.244 218.934 151.901 202.114 169.285L201.687 169.284C213.078 181.416 237.115 184.526 253.923 169.689L254.374 169.691C254.303 169.622 254.228 169.557 254.156 169.489C254.201 169.449 254.247 169.413 254.291 169.373Z" fill="white"/>
<path d="M225.758 212.674C220.132 195.952 202.958 180.779 179.948 188.242L179.572 188.042C183.942 204.098 203.71 218.121 225.514 212.903L225.911 213.116C225.881 213.023 225.845 212.929 225.813 212.836C225.872 212.821 225.93 212.811 225.987 212.797L225.758 212.674Z" fill="white"/>
<path d="M83.0461 187.575L82.8131 187.698C65.3981 183.167 42.7911 189.094 36.1701 212.345L35.7871 212.548C51.9251 217.758 75.0161 209.04 82.8701 188.028L83.2761 187.815C83.1791 187.788 83.0791 187.767 82.9821 187.741C83.0021 187.685 83.0261 187.631 83.0461 187.575Z" fill="white"/>
<path d="M60.0601 169.267C59.9851 169.199 59.9061 169.135 59.8321 169.068C59.8751 169.027 59.9211 168.99 59.9641 168.949L59.7001 168.953C46.2411 157.009 23.4071 152.026 6.95107 169.736L6.51807 169.742C18.5311 181.713 43.0631 184.428 59.6021 169.273L60.0601 169.267Z" fill="white"/>
<path d="M140.723 105.794H121.574V126.713H101.148V146.556H121.574V169.691H140.723V146.556H161.659V127.224H140.723V105.794Z" fill="white"/>
</svg>
